# xmcd CD database file
#
# Track frame offsets:
#	150
#	42656
#	76768
#	101575
#	146566
#	187366
#	191100
#	237798
#
# Disc length: 3696 seconds
#
# Revision: 0
# Processed by: cddbd v1.5.1PL0 Copyright (c) Steve Scherf et al.
# Submitted via: NeoAudio 9.9.9
#
DISCID=700e6e08
DTITLE=Alexey Popov - Alexey Popov and "Four and more"
DYEAR=2003
DGENRE=Jazz
TTITLE0=Well you needn't
TTITLE1=Candy
TTITLE2=You don't know what love is
TTITLE3=Nothing personal
TTITLE4=Autumn in New York
TTITLE5=Friday night
TTITLE6=Sister Sadie
TTITLE7=November,19
EXTD=YEAR: 2003
EXTT0=
EXTT1=
EXTT2=
EXTT3=
EXTT4=
EXTT5=
EXTT6=
EXTT7=
PLAYORDER=
